# xmcd
#
# Track frame offsets:
#	150
#	78679
#	120758
#	182862
#
# Disc length: 2878 seconds
#
# Revision: 1
# Processed by: cddbd v1.5.2PL0 Copyright (c) Steve Scherf et al.
# Submitted via: audiograbber 1.83.01
#
DISCID=290b3c04
DTITLE=Micky and The Hartbeats - 68-10-08 The Matrix, San Francisco CA
DYEAR=1900
DGENRE=
TTITLE0=Next Time You See Me
TTITLE1=Jam 2
TTITLE2=The Other One
TTITLE3=Jam 
EXTD=
EXTT0=
EXTT1=
EXTT2=
EXTT3=
PLAYORDER=
